# xmcd
#
# Track frame offsets:
# 150
# 18265
# 40927
# 55430
# 75060
# 96622
# 114297
# 149437
# 162112
# 177180
# 199640
# 230962
# 266425
# 280170
#
# Disc length: 4063 seconds
#
#
# Revision: 0
# Processed by: cddbd v1.5.1PL2 Copyright (c) Steve Scherf et al.
# Submitted via: FreeRIP 2.943 
#
DISCID=ba0fdd0e
DTITLE=SlackJaw Blues Band - Knuckle Down
DYEAR=1997
DGENRE=Blues
TTITLE0=Still Ramblin'
TTITLE1=Judgement Day
TTITLE2=Rock This House
TTITLE3=Leaving Blues
TTITLE4=The Weight
TTITLE5=Confessin' The Blues
TTITLE6=Drunk Woman Blues
TTITLE7=Let It Rock
TTITLE8=Big Boss Man
TTITLE9=Stop Breaking Down
TTITLE10=May I Have a Talk With You
TTITLE11=Chubbee
TTITLE12=Dayton, WYO.
TTITLE13=No More Troubles
EXTD=
EXTT0=
EXTT1=
EXTT2=
EXTT3=
EXTT4=
EXTT5=
EXTT6=
EXTT7=
EXTT8=
EXTT9=
EXTT10=
EXTT11=
EXTT12=
EXTT13=
PLAYORDER=
